# xmcd CD database file generated by Grip 2.7
# 
# Track frame offsets:
#       150
#       12071
#       26245
#       38299
#       52308
#       69461
#       79474
#       91925
#       108901
#       125599
#       136687
#       146743
#       162760
#       178217
#       190363
#       204856
# 
# Disc length: 2971 seconds
# 
# Revision: 3
# Processed by: cddbd v1.4b41PL1 Copyright (c) Steve Scherf et al.
# Submitted via: Grip 2.7
# 
DISCID=da0b9910
DTITLE=Karaoke - Hits zum Mitsingen 2
DYEAR=1900
DGENRE=
TTITLE0=Mendocino
TTITLE1=Michaela
TTITLE2=Tanz Samba mit mir
TTITLE3=Anita
TTITLE4=Verdammt ich lieb Dich
TTITLE5=Wähle 333
TTITLE6=Tränen lügen nicht
TTITLE7=Du kannst nicht immer 17 sein
TTITLE8=Aber bitte mit Sahne
TTITLE9=Schuld war nur der Bossa Nova
TTITLE10=Die Liebe ist ein seltsames Spiel
TTITLE11=Augen zu und durch
TTITLE12=Griechischer Wein
TTITLE13=Marmor Stein und Eisen bricht
TTITLE14=Ein Bett im Kornfeld
TTITLE15=Alice, Who The Fuck...
EXTD=
EXTT0=
EXTT1=
EXTT2=
EXTT3=
EXTT4=
EXTT5=
EXTT6=
EXTT7=
EXTT8=
EXTT9=
EXTT10=
EXTT11=
EXTT12=
EXTT13=
EXTT14=
EXTT15=
PLAYORDER=
